<svg width="300" height="94" viewBox="0 0 300 94" fill="none" xmlns="http://www.w3.org/2000/svg">
<path d="M26 28.896C26 21.7737 31.7737 16 38.896 16H75.104C82.2263 16 88 21.7737 88 28.896V65.104C88 72.2263 82.2263 78 75.104 78H38.896C31.7737 78 26 72.2263 26 65.104V28.896Z" fill="#836EF9"/>
<path fill-rule="evenodd" clip-rule="evenodd" d="M55.5409 30.2841C54.5474 29.496 52.0962 28.4914 50.8322 28.3541C50.2211 28.2878 49.5128 28.2069 49.2581 28.1743C48.2935 28.0508 46.1477 28.4551 44.7212 29.0289C38.7351 31.4378 36.2631 38.3044 39.266 44.1822C39.7712 45.1712 40.5497 46.0462 43.6318 49.0894C52.1282 57.4783 58.0923 63.2729 58.7023 63.7316C60.3323 64.9571 63.112 65.8475 65.3105 65.848C69.2135 65.8489 73.2778 63.4383 74.9818 60.1115C76.4485 57.2486 76.5966 54.5822 75.5029 50.7379C75.0809 49.2546 74.813 47.9136 74.813 47.2856V46.2588L73.7482 47.2693C72.2516 48.6896 71.0157 49.4754 69.2283 50.1424C67.7776 50.6837 67.5313 50.7185 65.1836 50.7155C63.3329 50.7131 62.4733 50.6338 61.8733 50.4101C61.4278 50.2439 61.0367 50.1079 61.0043 50.1079C60.9721 50.1079 62.035 51.1816 63.3664 52.494C64.7794 53.8865 65.7343 54.9659 65.6597 55.0865C65.349 55.5894 64.7007 55.1596 62.4641 52.9677C61.1589 51.6888 57.9346 48.5432 55.2985 45.9771C52.6627 43.4113 50.0116 40.828 49.4072 40.2366C48.8028 39.6451 48.3411 39.0618 48.3811 38.9403C48.5407 38.4553 49.1946 38.6222 49.8424 39.3133C51.1536 40.7119 57.9923 47.2212 58.6631 47.7091C60.1073 48.7596 61.6415 49.4029 63.4275 49.7068C65.0421 49.9814 65.3247 49.9814 66.9347 49.7076C68.4702 49.4465 70.9733 48.5267 71.2895 48.1076C71.3432 48.0365 71.7905 47.6541 72.2834 47.2578C73.5695 46.2242 73.9252 45.799 74.7524 44.3072C77.1572 39.9708 76.542 35.0675 73.1612 31.6237C71.5073 29.9391 71.2653 29.7697 69.4489 29.0256C68.0756 28.4632 67.6141 28.3678 65.9243 28.2977C63.1787 28.1836 62.0348 28.4319 59.5216 29.6882C59.2082 29.8447 58.6777 30.1967 58.3425 30.4704L57.7329 30.9678L61.6433 34.871C63.7942 37.0178 65.554 38.8988 65.554 39.051C65.554 39.2033 65.4188 39.3797 65.2534 39.4433C65.0351 39.527 63.7581 38.3637 60.5776 35.1836C58.1712 32.7773 55.9048 30.5726 55.5409 30.2841ZM53.5397 60.1708C51.9129 58.5892 49.2161 55.9489 47.5471 54.3034C45.878 52.6579 43.372 50.1931 41.9782 48.8259L39.4436 46.3403V47.2888C39.4436 47.8102 39.2453 48.887 39.0029 49.6816C37.7877 53.6641 37.6233 55.578 38.2984 57.8855C38.9108 59.9789 39.708 61.3017 41.2028 62.7046C42.5948 64.0114 43.1318 64.3864 44.2966 64.8662C46.6651 65.8419 48.6963 66.0558 51.1446 65.5873C52.7341 65.2832 53.5141 64.9523 55.2391 63.8503L56.4977 63.0461L53.5397 60.1708Z" fill="white"/>
<path d="M113.625 65C113.208 65 113 64.7917 113 64.375V32.3C113 31.8833 113.208 31.675 113.625 31.675H127.825C128.225 31.675 128.558 31.8083 128.825 32.075L133.825 37.075C134.108 37.3583 134.25 37.6917 134.25 38.075V64.375C134.25 64.7917 134.042 65 133.625 65H126.55C126.133 65 125.925 64.7917 125.925 64.375V38.325H121.325V64.375C121.325 64.7917 121.117 65 120.7 65H113.625Z" fill="#9784FF"/>
<path d="M140.871 65C140.454 65 140.246 64.7917 140.246 64.375V32.3C140.246 31.8833 140.454 31.675 140.871 31.675H158.296C158.713 31.675 158.921 31.8833 158.921 32.3V37.7C158.921 38.1167 158.713 38.325 158.296 38.325H148.571V45.425H157.446C157.863 45.425 158.071 45.6333 158.071 46.05V50.625C158.071 51.0417 157.863 51.25 157.446 51.25H148.571V58.325H158.296C158.713 58.325 158.921 58.5333 158.921 58.95V64.375C158.921 64.7917 158.713 65 158.296 65H140.871Z" fill="#9784FF"/>
<path d="M170.529 65C170.113 65 169.904 64.7917 169.904 64.375V38.325H165.529C165.113 38.325 164.904 38.1167 164.904 37.7V32.3C164.904 31.8833 165.113 31.675 165.529 31.675H182.604C183.021 31.675 183.229 31.8833 183.229 32.3V37.7C183.229 38.1167 183.021 38.325 182.604 38.325H178.229V64.375C178.229 64.7917 178.021 65 177.604 65H170.529Z" fill="#9784FF"/>
<path d="M189.846 65C189.429 65 189.221 64.7917 189.221 64.375V32.3C189.221 31.8833 189.429 31.675 189.846 31.675H196.921C197.337 31.675 197.546 31.8833 197.546 32.3V64.375C197.546 64.7917 197.337 65 196.921 65H189.846Z" fill="#9784FF"/>
<path d="M206.077 65C205.727 65 205.477 64.8583 205.327 64.575L202.202 59.3C202.019 59 201.986 58.7083 202.102 58.425L210.577 38.5L210.352 39.325V37.875L210.602 38.325H203.077C202.661 38.325 202.452 38.1167 202.452 37.7V32.3C202.452 31.8833 202.661 31.675 203.077 31.675H215.202C215.536 31.675 215.786 31.8 215.952 32.05L219.527 37.075C219.727 37.325 219.752 37.6167 219.602 37.95L211.027 58.05L211.227 56.625V59L210.827 58.325H218.702C219.119 58.325 219.327 58.5333 219.327 58.95V64.375C219.327 64.7917 219.119 65 218.702 65H206.077Z" fill="#9784FF"/>
<path d="M224.807 65C224.39 65 224.182 64.7917 224.182 64.375V32.3C224.182 31.8833 224.39 31.675 224.807 31.675H242.232C242.648 31.675 242.857 31.8833 242.857 32.3V37.7C242.857 38.1167 242.648 38.325 242.232 38.325H232.507V45.425H241.382C241.798 45.425 242.007 45.6333 242.007 46.05V50.625C242.007 51.0417 241.798 51.25 241.382 51.25H232.507V58.325H242.232C242.648 58.325 242.857 58.5333 242.857 58.95V64.375C242.857 64.7917 242.648 65 242.232 65H224.807Z" fill="#9784FF"/>
<path d="M249.465 65C249.048 65 248.84 64.7917 248.84 64.375V32.3C248.84 31.8833 249.048 31.675 249.465 31.675H263.665C264.065 31.675 264.398 31.8083 264.665 32.075L269.665 37.075C269.948 37.3583 270.09 37.6917 270.09 38.075V64.375C270.09 64.7917 269.882 65 269.465 65H262.39C261.973 65 261.765 64.7917 261.765 64.375V38.325H257.165V64.375C257.165 64.7917 256.957 65 256.54 65H249.465Z" fill="#9784FF"/>
</svg>
